# xmcd CD database file
#
# Track frame offsets:
#	150
#	14550
#	33347
#	51390
#	68767
#	93755
#	115087
#	139857
#	156960
#	168647
#	184422
#	204997
#
# Disc length: 3024 seconds
#
# Revision: 0
# Processed by: cddbd v1.5.1PL0 Copyright (c) Steve Scherf et al.
# Submitted via: CDex 1.50
#
DISCID=a60bce0c
DTITLE=Terry Johnson - Solo Companion
DYEAR=1993
DGENRE=New Age
TTITLE0=I Will
TTITLE1=Metamorphosis
TTITLE2=Summer Seasons
TTITLE3=Hawaii Part I
TTITLE4=Medieval Cathedral
TTITLE5=Fortune's Child
TTITLE6=Out Of Nowhere
TTITLE7=Romantic Notion
TTITLE8=Realizations
TTITLE9=Hawaii Part II
TTITLE10=Mountain Mist
TTITLE11=Solo Companion
EXTD=YEAR: 1993
EXTT0=
EXTT1=
EXTT2=
EXTT3=
EXTT4=
EXTT5=
EXTT6=
EXTT7=
EXTT8=
EXTT9=
EXTT10=
EXTT11=
PLAYORDER=
